<svg width="191" height="87" viewBox="0 0 191 87" fill="none" xmlns="http://www.w3.org/2000/svg">
<path d="M95.6133 10.5913C92.79 11.7927 89.9982 13.0447 87.219 14.303C87.6843 19.684 88.049 25.0903 88.3445 30.5155C90.7528 31.5525 93.1736 32.5895 95.6133 33.5759C98.053 32.5895 100.474 31.5525 102.876 30.5155C103.178 25.0903 103.542 19.684 104.001 14.303C101.228 13.0384 98.4302 11.7737 95.6133 10.5913" fill="white"/>
<path d="M95.6133 10.5913C92.79 11.7927 89.9982 13.0447 87.219 14.303C87.6843 19.684 88.049 25.0903 88.3445 30.5155C90.7528 31.5525 93.1736 32.5895 95.6133 33.5759C98.053 32.5895 100.474 31.5525 102.876 30.5155C103.178 25.0903 103.542 19.684 104.001 14.303C101.235 13.0447 98.4302 11.7927 95.6133 10.5913Z" stroke="white" stroke-width="4.36" stroke-miterlimit="10"/>
<path d="M87.219 14.303C87.4621 17.2243 87.6717 20.1519 87.8478 23.0858H95.5881V10.5913C92.7649 11.7927 89.9731 13.0447 87.1938 14.303" fill="#5773A5"/>
<path d="M100.235 23.3136L98.7192 23.2061C98.7905 20.6431 98.8639 18.0865 98.9393 15.5361L100.48 15.9092C100.392 18.3752 100.316 20.8434 100.253 23.3136" fill="#5773A5"/>
<path d="M102.876 30.5156C103.018 28.0285 103.178 25.5477 103.354 23.0732C100.776 23.0732 98.1955 23.0732 95.6133 23.0732V33.576C98.053 32.5896 100.474 31.5526 102.876 30.5156" fill="#5773A5"/>
<path d="M95.6133 10.5913C92.79 11.7927 89.9982 13.0447 87.219 14.303C87.6843 19.684 88.049 25.0903 88.3445 30.5155C90.7528 31.5525 93.1736 32.5895 95.6133 33.5759C98.053 32.5895 100.474 31.5525 102.876 30.5155C103.178 25.0903 103.505 19.684 104.001 14.303C101.235 13.0447 98.4302 11.7927 95.6133 10.5913Z" stroke="#466B9F" stroke-width="1.45" stroke-miterlimit="10"/>
<path d="M91.545 12.8804C91.13 14.4864 90.7212 16.0925 90.2874 17.6923C90.2559 16.2822 90.2245 14.8785 90.1868 13.4684L91.5261 12.8804" fill="white"/>
<path d="M90.5452 23.2123C91.1237 21.5746 91.7021 19.9243 92.2806 18.2739C92.2806 19.9179 92.2806 21.5662 92.2806 23.2186H90.5452" fill="white"/>
<path d="M58.2444 63.6805C58.5355 63.6784 58.8238 63.7382 59.0903 63.8559C59.3568 63.9736 59.5957 64.1465 59.7912 64.3634C60.0025 64.5911 60.1669 64.8586 60.2748 65.1506C60.3827 65.4425 60.4321 65.7531 60.42 66.0643C60.434 66.3815 60.3857 66.6983 60.2778 66.9967C60.1699 67.295 60.0045 67.5691 59.7912 67.8031C59.5862 68.0201 59.3395 68.1929 59.066 68.3109C58.7925 68.429 58.498 68.4898 58.2004 68.4898C57.9028 68.4898 57.6083 68.429 57.3348 68.3109C57.0613 68.1929 56.8146 68.0201 56.6096 67.8031C56.3958 67.5681 56.2302 67.293 56.1223 66.9935C56.0144 66.6941 55.9663 66.3761 55.9808 66.058C55.9688 65.7226 56.0288 65.3886 56.1569 65.0786C56.2849 64.7687 56.4779 64.4903 56.7228 64.2622C57.1338 63.8562 57.6871 63.6291 58.2633 63.6299L58.2444 63.6805ZM58.2004 63.8828C58.0121 63.8769 57.8249 63.9149 57.6536 63.9939C57.4824 64.0729 57.3316 64.1907 57.2132 64.3381C56.874 64.8249 56.7119 65.4144 56.7542 66.0074C56.7136 66.6246 56.882 67.2375 57.2321 67.7462C57.3465 67.8953 57.4946 68.0149 57.6641 68.0952C57.8335 68.1754 58.0195 68.214 58.2067 68.2078C58.4106 68.2113 58.6125 68.1675 58.7968 68.0797C58.9811 67.992 59.1428 67.8627 59.2693 67.702C59.5893 67.2337 59.7382 66.6684 59.6906 66.1022C59.7376 65.4811 59.576 64.8621 59.2316 64.3444C59.1074 64.192 58.9494 64.0709 58.7704 63.9907C58.5914 63.9106 58.3962 63.8736 58.2004 63.8828" fill="white"/>
<path d="M66.2048 63.6802L66.3117 65.2483H66.2048C66.1052 64.8534 65.8854 64.4997 65.576 64.2366C65.3112 64.0276 64.982 63.918 64.6454 63.9268C64.3541 63.9225 64.0678 64.0038 63.8217 64.1608C63.5561 64.3398 63.3536 64.5988 63.2432 64.9006C63.0893 65.3037 63.0166 65.7336 63.0294 66.1652C63.0227 66.5356 63.0912 66.9035 63.2307 67.2464C63.361 67.5415 63.5812 67.7872 63.8594 67.9483C64.1366 68.1151 64.4546 68.2005 64.7775 68.1949C65.0521 68.2006 65.3233 68.133 65.5635 67.9989C65.8616 67.7998 66.1163 67.5416 66.3117 67.2401L66.4123 67.3034C66.2265 67.6678 65.9517 67.9789 65.6138 68.2076C65.1483 68.4673 64.6066 68.5532 64.0843 68.4503C63.5619 68.3473 63.0925 68.062 62.7591 67.6448C62.4437 67.213 62.28 66.6881 62.2938 66.1525C62.2889 65.7116 62.3949 65.2766 62.6019 64.8879C62.7916 64.5154 63.0841 64.2058 63.4445 63.9964C63.7997 63.7828 64.2064 63.6712 64.6203 63.6739C64.9622 63.676 65.2985 63.7606 65.6012 63.9205C65.6625 63.9592 65.7309 63.985 65.8024 63.9964C65.8315 63.9975 65.8606 63.9925 65.8877 63.9816C65.9148 63.9707 65.9393 63.9542 65.9596 63.9331C66.026 63.861 66.0697 63.7708 66.0854 63.6739L66.2048 63.6802Z" fill="white"/>
<path d="M69.3236 65.9248H71.4488V64.6033C71.4588 64.448 71.444 64.2922 71.4048 64.1417C71.3761 64.0791 71.3274 64.0279 71.2665 63.9963C71.1725 63.9427 71.0664 63.9144 70.9584 63.9141H70.7949V63.7876H72.7504V63.9141H72.5932C72.4858 63.9125 72.3797 63.9386 72.2851 63.9899C72.2166 64.0244 72.1629 64.0829 72.1342 64.1543C72.102 64.3017 72.0894 64.4526 72.0965 64.6033V67.5752C72.0866 67.7325 72.1015 67.8904 72.1405 68.0431C72.1707 68.1047 72.219 68.1554 72.2788 68.1885C72.376 68.2389 72.4839 68.2649 72.5932 68.2644H72.7504V68.3908H70.7949V68.2897H70.9584C71.0346 68.2967 71.1114 68.2855 71.1824 68.2569C71.2534 68.2283 71.3167 68.1832 71.3671 68.1253C71.4409 67.961 71.4692 67.7796 71.4488 67.6005V66.203H69.3236V67.6005C69.3137 67.7578 69.3285 67.9157 69.3676 68.0684C69.3959 68.1313 69.4447 68.1826 69.5059 68.2138C69.6011 68.2634 69.7068 68.2894 69.814 68.2897H69.9775V68.4161H68.022V68.2897H68.1792C68.2563 68.2972 68.3342 68.2862 68.4063 68.2577C68.4785 68.2291 68.5428 68.1837 68.5942 68.1253C68.6646 67.96 68.6928 67.7795 68.6759 67.6005V64.6286C68.6826 64.4734 68.6678 64.3181 68.6319 64.167C68.6032 64.1044 68.5545 64.0532 68.4936 64.0216C68.3977 63.9669 68.2893 63.9386 68.1792 63.9394H68.022V63.8129H69.9775V63.9394H69.7951C69.6879 63.9396 69.5823 63.9656 69.487 64.0152C69.4205 64.0504 69.3691 64.1089 69.3424 64.1796C69.3102 64.327 69.2976 64.4779 69.3047 64.6286L69.3236 65.9248Z" fill="white"/>
<path d="M76.6679 63.6805C76.959 63.6784 77.2473 63.7382 77.5138 63.8559C77.7804 63.9736 78.0192 64.1465 78.2148 64.3634C78.4261 64.5911 78.5904 64.8586 78.6983 65.1506C78.8063 65.4425 78.8556 65.7531 78.8435 66.0643C78.8533 66.3836 78.8 66.7018 78.6867 67.0002C78.5733 67.2987 78.4023 67.5716 78.1833 67.8031C77.9783 68.0201 77.7316 68.1929 77.4581 68.3109C77.1846 68.429 76.8901 68.4898 76.5925 68.4898C76.2949 68.4898 76.0004 68.429 75.7269 68.3109C75.4534 68.1929 75.2067 68.0201 75.0017 67.8031C74.7879 67.5681 74.6223 67.293 74.5144 66.9935C74.4065 66.6941 74.3584 66.3761 74.3729 66.058C74.3608 65.7226 74.4209 65.3886 74.549 65.0786C74.677 64.7687 74.87 64.4903 75.1148 64.2622C75.5259 63.8562 76.0792 63.6291 76.6554 63.6299L76.6679 63.6805ZM76.5925 63.8828C76.4042 63.8769 76.217 63.9149 76.0457 63.9939C75.8745 64.0729 75.7237 64.1907 75.6053 64.3381C75.266 64.8249 75.104 65.4144 75.1463 66.0074C75.1057 66.6246 75.2741 67.2375 75.6242 67.7462C75.7383 67.8957 75.8863 68.0156 76.0558 68.0959C76.2253 68.1762 76.4115 68.2146 76.5988 68.2078C76.8026 68.2113 77.0046 68.1675 77.1889 68.0797C77.3732 67.992 77.5349 67.8627 77.6614 67.702C77.9814 67.2337 78.1302 66.6684 78.0827 66.1022C78.1283 65.4804 77.9644 64.8612 77.6174 64.3444C77.4938 64.1929 77.3369 64.0723 77.159 63.9922C76.9812 63.9121 76.7872 63.8746 76.5925 63.8828" fill="white"/>
<path d="M83.572 66.0449C83.8356 66.0848 84.0835 66.1963 84.2888 66.3674C84.3941 66.4643 84.4778 66.5826 84.5342 66.7146C84.5906 66.8465 84.6184 66.989 84.6158 67.1325C84.6064 67.3596 84.5322 67.5791 84.402 67.7648C84.2535 67.9741 84.0451 68.1329 83.8046 68.2201C83.4325 68.3362 83.043 68.3854 82.6539 68.3655H80.4846V68.2896H80.6544C80.7334 68.2972 80.813 68.2843 80.8856 68.2522C80.9582 68.2201 81.0215 68.1699 81.0694 68.1063C81.1346 67.9462 81.1605 67.7727 81.1448 67.6004V64.6286C81.169 64.4432 81.1338 64.2549 81.0442 64.0911C80.9947 64.0381 80.9339 63.997 80.8664 63.9707C80.799 63.9445 80.7265 63.9337 80.6544 63.9393H80.4846V63.8129H82.459C82.7588 63.8049 83.0585 63.8325 83.3519 63.8951C83.6469 63.9568 83.9164 64.1067 84.1253 64.325C84.2981 64.5247 84.3921 64.7812 84.3894 65.0459C84.3963 65.2746 84.3228 65.4985 84.1819 65.6782C84.0204 65.8782 83.8004 66.022 83.5531 66.0892L83.572 66.0449ZM81.7862 65.9058H82.0692C82.1885 65.9126 82.3082 65.9126 82.4276 65.9058C82.6774 65.9172 82.927 65.8807 83.1632 65.7983C83.3248 65.7362 83.4602 65.6201 83.5468 65.4695C83.66 65.2837 83.7025 65.0629 83.6667 64.848C83.6309 64.6331 83.5191 64.4384 83.3519 64.2997C83.0774 64.093 82.7383 63.992 82.3961 64.0152C82.184 64.011 81.9724 64.0365 81.7673 64.0911L81.7862 65.9058ZM81.7862 68.1063C82.0402 68.1631 82.2994 68.1927 82.5596 68.1948C82.8933 68.2205 83.2247 68.1215 83.4902 67.9166C83.5918 67.8348 83.6735 67.7308 83.7291 67.6124C83.7847 67.4941 83.8126 67.3645 83.8109 67.2337C83.812 67.0526 83.7618 66.875 83.6663 66.7215C83.5579 66.5408 83.3916 66.4025 83.1947 66.3295C82.9368 66.2265 82.6609 66.177 82.3836 66.184H82.0251H81.7862V68.1063Z" fill="white"/>
<path d="M88.967 66.8481H87.1938L86.8857 67.5753C86.8236 67.7025 86.7832 67.8393 86.7662 67.98C86.7682 68.0162 86.7782 68.0515 86.7956 68.0833C86.8131 68.115 86.8374 68.1424 86.8668 68.1633C86.9999 68.2361 87.1493 68.2731 87.3007 68.2708V68.391H85.8545V68.2898C85.9868 68.2754 86.1139 68.2299 86.2255 68.157C86.3931 67.9615 86.5231 67.7364 86.609 67.4931L88.2187 63.6992H88.3382L89.9353 67.531C90.0052 67.7639 90.123 67.9793 90.2812 68.1633C90.4059 68.2644 90.5611 68.3202 90.7213 68.3214V68.4416H88.9104V68.2898C89.0403 68.2923 89.1684 68.2595 89.2814 68.195C89.3128 68.1745 89.3385 68.1464 89.3561 68.1132C89.3737 68.08 89.3826 68.0429 89.382 68.0053C89.3625 67.8405 89.3158 67.6802 89.2437 67.531L88.967 66.8481ZM88.8727 66.6015L88.093 64.7046L87.3007 66.6015H88.8727Z" fill="white"/>
<path d="M93.4628 65.9248H95.5755V64.6033C95.5822 64.4481 95.5674 64.2928 95.5315 64.1417C95.502 64.0775 95.4507 64.0259 95.3869 63.9963C95.2929 63.9427 95.1868 63.9144 95.0788 63.9141H94.9467V63.7876H96.9022V63.9141H96.7388C96.6315 63.9143 96.5259 63.9403 96.4307 63.9899C96.3641 64.0252 96.3127 64.0836 96.286 64.1543C96.2539 64.3017 96.2412 64.4526 96.2483 64.6033V67.5752C96.2384 67.7325 96.2533 67.8904 96.2923 68.0431C96.3206 68.106 96.3694 68.1573 96.4307 68.1885C96.5259 68.2381 96.6315 68.2641 96.7388 68.2644H96.9022V68.3908H94.9467V68.2897H95.1039C95.1802 68.2978 95.2573 68.287 95.3285 68.2584C95.3997 68.2297 95.4629 68.184 95.5126 68.1253C95.5895 67.9618 95.62 67.7802 95.6007 67.6005V66.203H93.4691V67.6005C93.4625 67.7577 93.4773 67.9151 93.5131 68.0684C93.5442 68.1314 93.595 68.1825 93.6577 68.2138C93.7523 68.2652 93.8583 68.2913 93.9658 68.2897H94.1293V68.4161H92.1675V68.2897H92.331C92.4072 68.2978 92.4843 68.287 92.5556 68.2584C92.6268 68.2297 92.69 68.184 92.7397 68.1253C92.8135 67.961 92.8418 67.7796 92.8214 67.6005V64.6286C92.8314 64.4733 92.8165 64.3175 92.7774 64.167C92.751 64.1029 92.7016 64.051 92.6391 64.0216C92.5451 63.968 92.439 63.9397 92.331 63.9394H92.1675V63.8129H94.1293V63.9394H93.9658C93.8583 63.9378 93.7523 63.9639 93.6577 64.0152C93.5912 64.0504 93.5397 64.1089 93.5131 64.1796C93.4745 64.3259 93.4597 64.4775 93.4691 64.6286L93.4628 65.9248Z" fill="white"/>
<path d="M100.813 63.6805C101.104 63.6796 101.392 63.74 101.658 63.8576C101.925 63.9752 102.164 64.1474 102.36 64.3634C102.571 64.5911 102.736 64.8586 102.844 65.1506C102.951 65.4425 103.001 65.7531 102.989 66.0643C102.999 66.3836 102.945 66.7018 102.832 67.0002C102.719 67.2987 102.547 67.5716 102.329 67.8032C102.123 68.0203 101.876 68.1932 101.602 68.3113C101.328 68.4294 101.033 68.4903 100.735 68.4903C100.436 68.4903 100.141 68.4294 99.8674 68.3113C99.5934 68.1932 99.3461 68.0203 99.1406 67.8032C98.9268 67.5681 98.7612 67.293 98.6533 66.9935C98.5454 66.6941 98.4973 66.3762 98.5118 66.058C98.5014 65.7228 98.5622 65.3893 98.6902 65.0796C98.8181 64.7699 99.0103 64.4913 99.2538 64.2622C99.6671 63.8559 100.223 63.6288 100.801 63.6299L100.813 63.6805ZM100.738 63.8828C100.549 63.8764 100.362 63.9142 100.191 63.9932C100.019 64.0722 99.8686 64.1903 99.7505 64.3381C99.409 64.8241 99.2447 65.4137 99.2852 66.0074C99.2475 66.6243 99.4157 67.2363 99.7631 67.7462C99.8782 67.8946 100.026 68.0136 100.196 68.0938C100.365 68.174 100.551 68.213 100.738 68.2078C100.942 68.2113 101.145 68.1675 101.331 68.0798C101.516 67.9921 101.679 67.8629 101.807 67.702C102.121 67.2313 102.27 66.6679 102.228 66.1022C102.274 65.4804 102.11 64.8612 101.763 64.3444C101.639 64.1929 101.482 64.0723 101.304 63.9922C101.126 63.9121 100.932 63.8746 100.738 63.8828" fill="white"/>
<path d="M110.666 66.045C110.928 66.086 111.173 66.1975 111.377 66.3675C111.482 66.4644 111.566 66.5828 111.622 66.7147C111.679 66.8466 111.706 66.9891 111.704 67.1326C111.697 67.3602 111.623 67.5806 111.49 67.7649C111.345 67.9749 111.138 68.1341 110.899 68.2202C110.527 68.3363 110.137 68.3856 109.748 68.3656H107.585V68.2898H107.761C107.839 68.2981 107.918 68.2855 107.99 68.2533C108.062 68.2211 108.124 68.1704 108.17 68.1064C108.235 67.9463 108.261 67.7728 108.245 67.6005V64.6287C108.267 64.4441 108.235 64.2571 108.151 64.0912C108.101 64.0386 108.04 63.9977 107.973 63.9715C107.906 63.9452 107.833 63.9343 107.761 63.9394H107.585V63.813H109.566C109.864 63.8046 110.161 63.8322 110.452 63.8952C110.749 63.9539 111.019 64.1042 111.226 64.3252C111.4 64.5242 111.497 64.7806 111.496 65.046C111.504 65.2759 111.428 65.5009 111.282 65.6783C111.119 65.8764 110.9 66.0198 110.654 66.0893L110.666 66.045ZM108.887 65.9059H109.17C109.287 65.9126 109.405 65.9126 109.522 65.9059C109.774 65.9178 110.026 65.8813 110.264 65.7984C110.423 65.7342 110.555 65.6185 110.641 65.4696C110.729 65.3251 110.775 65.1585 110.773 64.9891C110.774 64.8569 110.745 64.7262 110.688 64.6069C110.631 64.4876 110.549 64.3826 110.446 64.2999C110.173 64.091 109.833 63.9898 109.49 64.0153C109.278 64.01 109.067 64.0356 108.862 64.0912L108.887 65.9059ZM108.887 68.1064C109.139 68.1635 109.396 68.1932 109.654 68.1949C109.99 68.2204 110.323 68.1215 110.591 67.9167C110.692 67.8349 110.774 67.7309 110.83 67.6125C110.885 67.4942 110.913 67.3647 110.911 67.2338C110.909 67.0532 110.859 66.8764 110.767 66.7216C110.654 66.5421 110.487 66.4044 110.289 66.3296C110.033 66.226 109.76 66.1765 109.484 66.1842H109.126C109.046 66.1787 108.966 66.1787 108.887 66.1842V68.1064Z" fill="white"/>
<path d="M117.143 64.2367L118.256 63.6929H118.363V67.5816C118.353 67.7428 118.366 67.9045 118.4 68.0622C118.411 68.0946 118.428 68.1244 118.45 68.1495C118.473 68.1746 118.501 68.1945 118.532 68.2076C118.663 68.2567 118.802 68.2761 118.941 68.2645V68.391H117.225V68.2898C117.365 68.2996 117.506 68.2824 117.64 68.2392C117.695 68.2085 117.741 68.1624 117.772 68.1064C117.807 67.9425 117.82 67.7744 117.809 67.6069V65.1282C117.815 64.917 117.804 64.7056 117.778 64.4959C117.764 64.4339 117.734 64.377 117.69 64.3315C117.646 64.2991 117.593 64.2814 117.539 64.2809C117.418 64.293 117.3 64.3295 117.193 64.3884L117.143 64.2367Z" fill="white"/>
<path d="M121.4 68.4861V68.366C121.684 68.3593 121.964 68.288 122.217 68.1573C122.512 67.9872 122.762 67.7488 122.946 67.4617C123.177 67.1338 123.344 66.7647 123.437 66.3742C123.155 66.5777 122.821 66.6962 122.475 66.7156C122.319 66.7164 122.165 66.6835 122.023 66.6191C121.881 66.5548 121.754 66.4604 121.651 66.3425C121.411 66.0676 121.287 65.7091 121.305 65.3435C121.298 64.9565 121.42 64.5782 121.651 64.2686C121.768 64.088 121.928 63.9404 122.118 63.8397C122.307 63.739 122.519 63.6886 122.733 63.6932C122.918 63.6944 123.102 63.737 123.269 63.8179C123.436 63.8988 123.584 64.016 123.701 64.1611C124.034 64.5631 124.208 65.0737 124.191 65.5964C124.196 66.0974 124.068 66.5907 123.82 67.0254C123.567 67.4721 123.208 67.8498 122.777 68.1257C122.425 68.3621 122.011 68.4875 121.588 68.4861H121.4ZM123.493 66.1212C123.527 65.8865 123.545 65.65 123.55 65.413C123.546 65.1733 123.51 64.9352 123.443 64.7049C123.388 64.4846 123.277 64.2822 123.122 64.1168C123.064 64.0532 122.993 64.0025 122.914 63.9677C122.835 63.9329 122.75 63.9147 122.663 63.9145C122.561 63.9157 122.459 63.9409 122.368 63.988C122.276 64.0352 122.196 64.1031 122.135 64.1864C121.97 64.4223 121.89 64.7079 121.909 64.9957C121.889 65.3906 121.992 65.7819 122.204 66.1149C122.262 66.2058 122.343 66.2802 122.437 66.3311C122.532 66.3821 122.638 66.4077 122.745 66.4058C122.872 66.402 122.998 66.3763 123.116 66.3299C123.253 66.2821 123.38 66.2116 123.493 66.1212" fill="white"/>
<path d="M126.084 64.6666C126.194 64.3919 126.364 64.1455 126.581 63.9457C126.791 63.7723 127.057 63.6824 127.329 63.6928C127.488 63.6831 127.647 63.7106 127.793 63.7732C127.939 63.8357 128.069 63.9316 128.172 64.0532C128.314 64.2108 128.392 64.416 128.392 64.6287C128.369 64.8372 128.301 65.0382 128.192 65.2173C128.083 65.3965 127.937 65.5495 127.763 65.6656C128.013 65.7605 128.231 65.925 128.392 66.1399C128.535 66.3546 128.61 66.6084 128.606 66.867C128.613 67.2479 128.478 67.6176 128.228 67.904C128.047 68.0993 127.825 68.2517 127.578 68.3501C127.332 68.4485 127.066 68.4905 126.801 68.4731C126.585 68.493 126.368 68.4536 126.172 68.3593C126.126 68.336 126.085 68.3012 126.056 68.258C126.026 68.2149 126.008 68.1649 126.002 68.1127C126.002 68.0789 126.009 68.0453 126.023 68.0146C126.037 67.9839 126.058 67.9569 126.084 67.9357C126.136 67.8895 126.204 67.8647 126.273 67.8661C126.331 67.8578 126.391 67.8578 126.449 67.8661C126.537 67.9003 126.624 67.9404 126.707 67.9862C126.794 68.0396 126.887 68.0841 126.983 68.119C127.071 68.1445 127.162 68.1572 127.254 68.157C127.367 68.1563 127.478 68.1318 127.581 68.085C127.684 68.0381 127.776 67.97 127.851 67.8851C127.933 67.8019 127.998 67.7032 128.043 67.5947C128.087 67.4862 128.109 67.37 128.109 67.2528C128.11 67.0709 128.069 66.8913 127.989 66.7279C127.945 66.6186 127.879 66.5196 127.795 66.4371C127.677 66.3337 127.543 66.2504 127.398 66.1905C127.235 66.121 127.06 66.0845 126.883 66.083H126.776V65.9818C126.965 65.9524 127.147 65.8858 127.31 65.7858C127.472 65.6946 127.607 65.5614 127.7 65.4001C127.782 65.2511 127.823 65.0832 127.82 64.9132C127.823 64.8088 127.806 64.7048 127.769 64.6071C127.733 64.5095 127.677 64.4201 127.606 64.3441C127.459 64.2029 127.262 64.1257 127.059 64.1291C126.877 64.1369 126.7 64.193 126.546 64.2919C126.393 64.3907 126.268 64.5288 126.185 64.6919L126.084 64.6666Z" fill="white"/>
<path d="M130.687 66.1146C130.677 65.6521 130.758 65.1922 130.926 64.7615C131.051 64.4248 131.269 64.131 131.555 63.9142C131.735 63.7745 131.956 63.697 132.183 63.6929C132.372 63.7003 132.556 63.753 132.72 63.8465C132.884 63.94 133.023 64.0716 133.126 64.2303C133.5 64.7581 133.684 65.3981 133.648 66.0451C133.66 66.5107 133.583 66.9743 133.422 67.4109C133.306 67.7303 133.103 68.0106 132.837 68.2202C132.641 68.3752 132.401 68.4637 132.152 68.4732C131.915 68.4604 131.687 68.3806 131.493 68.243C131.3 68.1054 131.149 67.9156 131.058 67.6954C130.799 67.21 130.671 66.6651 130.687 66.1146V66.1146ZM131.353 66.2032C131.335 66.7295 131.414 67.2548 131.586 67.7523C131.712 68.0938 131.907 68.2582 132.158 68.2582C132.3 68.2523 132.434 68.1937 132.535 68.0938C132.691 67.9475 132.794 67.7544 132.831 67.5437C132.952 67.0046 133.005 66.4521 132.988 65.8996C133.001 65.4554 132.946 65.0118 132.825 64.5844C132.774 64.3745 132.667 64.1822 132.517 64.028C132.42 63.9515 132.3 63.9112 132.177 63.9142C132.098 63.9163 132.02 63.9361 131.949 63.9722C131.879 64.0083 131.817 64.0598 131.768 64.1228C131.579 64.3815 131.466 64.6881 131.441 65.0081C131.381 65.4035 131.352 65.8031 131.353 66.2032Z" fill="white"/>
<path d="M179.368 32.4819H112.245L112.672 30.332H179.368V32.4819Z" fill="white"/>
<path d="M11.2615 32.4819H78.3781L77.9568 30.332H11.2615V32.4819Z" fill="white"/>
<path d="M48.8252 42.2387C49.5767 42.2252 50.3231 42.3661 51.0186 42.6526C51.7141 42.9391 52.3442 43.3653 52.8704 43.9051C53.3966 44.4448 53.8077 45.0869 54.0787 45.7919C54.3497 46.4969 54.4749 47.2501 54.4466 48.0054C54.4316 49.1292 54.0861 50.2234 53.4536 51.15C52.8211 52.0766 51.93 52.7941 50.8925 53.212C49.855 53.63 48.7177 53.7297 47.624 53.4985C46.5303 53.2673 45.5291 52.7157 44.7467 51.9131C43.9644 51.1105 43.4358 50.0929 43.2278 48.9887C43.0198 47.8844 43.1416 46.7429 43.5778 45.7082C44.014 44.6734 44.7451 43.7917 45.679 43.1743C46.6128 42.5568 47.7076 42.2313 48.8252 42.2387V42.2387ZM48.7183 42.8204C46.8697 42.8204 45.9265 44.5213 45.9265 48.0054C45.9265 51.3946 47.0206 53.203 48.8063 53.203C50.5921 53.203 51.6107 51.4831 51.6107 48.0054C51.6107 44.5276 50.4852 42.8204 48.7183 42.8204Z" fill="white"/>
<path d="M48.8252 42.2387C49.5767 42.2252 50.3231 42.3661 51.0186 42.6526C51.7141 42.9391 52.3442 43.3653 52.8704 43.9051C53.3966 44.4448 53.8077 45.0869 54.0787 45.7919C54.3497 46.4969 54.4749 47.2501 54.4466 48.0054C54.4316 49.1292 54.0861 50.2234 53.4536 51.15C52.8211 52.0766 51.93 52.7941 50.8925 53.212C49.855 53.63 48.7177 53.7297 47.624 53.4985C46.5303 53.2673 45.5291 52.7157 44.7467 51.9131C43.9644 51.1105 43.4358 50.0929 43.2278 48.9887C43.0198 47.8844 43.1416 46.7429 43.5778 45.7082C44.014 44.6734 44.7451 43.7917 45.679 43.1743C46.6128 42.5568 47.7076 42.2313 48.8252 42.2387V42.2387ZM48.7183 42.8204C46.8697 42.8204 45.9265 44.5213 45.9265 48.0054C45.9265 51.3946 47.0206 53.203 48.8063 53.203C50.5921 53.203 51.6107 51.4831 51.6107 48.0054C51.6107 44.5276 50.4852 42.8204 48.7183 42.8204Z" stroke="#5773A5" stroke-width="0.24" stroke-miterlimit="10"/>
<path d="M68.4684 45.8177H68.0723C67.8065 44.9691 67.2848 44.2248 66.5795 43.6877C65.8743 43.1507 65.0203 42.8476 64.1361 42.8205C62.168 42.8205 61.2059 44.5404 61.2059 48.0371C61.2059 51.3188 62.3189 52.9565 64.4379 52.9565C65.1555 52.9235 65.8559 52.725 66.485 52.3763C67.1141 52.0277 67.655 51.5382 68.066 50.9457L68.5124 51.3757C68.0071 52.1296 67.3227 52.7448 66.5211 53.1655C65.7196 53.5862 64.8263 53.7991 63.9223 53.7848C60.7784 53.7848 58.3701 51.4516 58.3701 47.9865C58.3701 44.6605 60.6715 42.2388 63.9852 42.2388C65.4211 42.261 66.8504 42.439 68.2483 42.7699L68.4684 45.8177Z" fill="white"/>
<path d="M68.4684 45.8177H68.0723C67.8065 44.9691 67.2848 44.2248 66.5795 43.6877C65.8743 43.1507 65.0203 42.8476 64.1361 42.8205C62.168 42.8205 61.2059 44.5404 61.2059 48.0371C61.2059 51.3188 62.3189 52.9565 64.4379 52.9565C65.1555 52.9235 65.8559 52.725 66.485 52.3763C67.1141 52.0277 67.655 51.5382 68.066 50.9457L68.5124 51.3757C68.0071 52.1296 67.3227 52.7448 66.5211 53.1655C65.7196 53.5862 64.8263 53.7991 63.9223 53.7848C60.7784 53.7848 58.3701 51.4516 58.3701 47.9865C58.3701 44.6605 60.6715 42.2388 63.9852 42.2388C65.4211 42.261 66.8504 42.439 68.2483 42.7699L68.4684 45.8177Z" stroke="#5773A5" stroke-width="0.24" stroke-miterlimit="10"/>
<path d="M147.136 53.4303C146.91 53.2722 146.149 52.8802 145.771 52.6336C145.703 52.3846 145.671 52.1268 145.677 51.8685V44.1416C145.67 43.8853 145.702 43.6295 145.771 43.3828C146.149 43.1362 146.91 42.7505 147.136 42.5798C147.136 42.5798 147.136 42.5355 147.136 42.5103H141.615C141.611 42.5144 141.608 42.5193 141.605 42.5247C141.603 42.5302 141.602 42.536 141.602 42.5419C141.602 42.5478 141.603 42.5536 141.605 42.559C141.608 42.5644 141.611 42.5694 141.615 42.5735C141.842 42.7316 142.577 43.1173 142.961 43.3639C143.033 43.6145 143.067 43.8745 143.061 44.1353V47.4486H138.528V44.1416C138.522 43.8833 138.553 43.6255 138.622 43.3765C138.999 43.1299 139.754 42.7442 139.987 42.5798C139.991 42.5757 139.994 42.5708 139.996 42.5653C139.999 42.5599 140 42.5541 140 42.5482C140 42.5423 139.999 42.5365 139.996 42.531C139.994 42.5256 139.991 42.5207 139.987 42.5166H134.466V42.5545C134.46 42.5615 134.456 42.5705 134.456 42.5798C134.456 42.5891 134.46 42.5981 134.466 42.6051C134.692 42.7632 135.428 43.1489 135.811 43.3955C135.883 43.6461 135.917 43.9061 135.912 44.1669V51.8495C135.917 52.1103 135.883 52.3704 135.811 52.6209C135.428 52.8739 134.692 53.2533 134.466 53.4113C134.462 53.4155 134.458 53.4204 134.456 53.4258C134.454 53.4312 134.453 53.4371 134.453 53.4429C134.453 53.4488 134.454 53.4547 134.456 53.4601C134.458 53.4655 134.462 53.4704 134.466 53.4746V53.5062H139.987C139.995 53.4968 140 53.4843 140 53.4714C140 53.4585 139.995 53.446 139.987 53.4366C139.76 53.2785 138.999 52.8865 138.622 52.6399C138.553 52.391 138.521 52.1332 138.528 51.8748V48.1758H143.061V51.8495C143.066 52.1123 143.032 52.3744 142.961 52.6273C142.577 52.8739 141.842 53.2596 141.615 53.4113C141.611 53.4155 141.608 53.4204 141.605 53.4258C141.603 53.4312 141.602 53.4371 141.602 53.4429C141.602 53.4488 141.603 53.4547 141.605 53.4601C141.608 53.4655 141.611 53.4704 141.615 53.4746V53.5062H147.136C147.141 53.502 147.145 53.4968 147.148 53.4907C147.151 53.4847 147.153 53.4781 147.153 53.4714C147.153 53.4647 147.151 53.4581 147.148 53.4521C147.145 53.446 147.141 53.4408 147.136 53.4366" fill="white"/>
<path d="M147.136 53.4303C146.91 53.2722 146.149 52.8802 145.771 52.6336C145.703 52.3846 145.671 52.1268 145.677 51.8685V44.1416C145.67 43.8853 145.702 43.6295 145.771 43.3828C146.149 43.1362 146.91 42.7505 147.136 42.5798C147.136 42.5798 147.136 42.5355 147.136 42.5103H141.615C141.611 42.5144 141.608 42.5193 141.605 42.5247C141.603 42.5302 141.602 42.536 141.602 42.5419C141.602 42.5478 141.603 42.5536 141.605 42.559C141.608 42.5644 141.611 42.5694 141.615 42.5735C141.842 42.7316 142.577 43.1173 142.961 43.3639C143.033 43.6145 143.067 43.8745 143.061 44.1353V47.4486H138.528V44.1416C138.522 43.8833 138.553 43.6255 138.622 43.3765C138.999 43.1299 139.754 42.7442 139.987 42.5798C139.991 42.5757 139.994 42.5708 139.996 42.5653C139.999 42.5599 140 42.5541 140 42.5482C140 42.5423 139.999 42.5365 139.996 42.531C139.994 42.5256 139.991 42.5207 139.987 42.5166H134.466V42.5545C134.46 42.5615 134.456 42.5705 134.456 42.5798C134.456 42.5891 134.46 42.5981 134.466 42.6051C134.692 42.7632 135.428 43.1489 135.811 43.3955C135.883 43.6461 135.917 43.9061 135.912 44.1669V51.8495C135.917 52.1103 135.883 52.3704 135.811 52.6209C135.428 52.8739 134.692 53.2533 134.466 53.4113C134.462 53.4155 134.458 53.4204 134.456 53.4258C134.454 53.4312 134.453 53.4371 134.453 53.4429C134.453 53.4488 134.454 53.4547 134.456 53.4601C134.458 53.4655 134.462 53.4704 134.466 53.4746V53.5062H139.987C139.995 53.4968 140 53.4843 140 53.4714C140 53.4585 139.995 53.446 139.987 53.4366C139.76 53.2785 138.999 52.8865 138.622 52.6399C138.553 52.391 138.521 52.1332 138.528 51.8748V48.1758H143.061V51.8495C143.066 52.1123 143.032 52.3744 142.961 52.6273C142.577 52.8739 141.842 53.2596 141.615 53.4113C141.611 53.4155 141.608 53.4204 141.605 53.4258C141.603 53.4312 141.602 53.4371 141.602 53.4429C141.602 53.4488 141.603 53.4547 141.605 53.4601C141.608 53.4655 141.611 53.4704 141.615 53.4746V53.5062H147.136C147.142 53.5022 147.148 53.4967 147.152 53.49C147.155 53.4834 147.157 53.4759 147.157 53.4682C147.157 53.4606 147.155 53.4531 147.152 53.4464C147.148 53.4398 147.142 53.4342 147.136 53.4303Z" stroke="#5773A5" stroke-width="0.24" stroke-miterlimit="10"/>
<path d="M35.1616 48.5427C37.7962 48.5427 39.1859 47.316 39.1859 45.4759C39.1859 43.0668 37.1109 42.4851 34.7026 42.4851H29.5843C29.5718 42.4801 29.5578 42.4802 29.5454 42.4856C29.5331 42.4909 29.5233 42.501 29.5183 42.5136C29.5133 42.5261 29.5134 42.5402 29.5188 42.5526C29.5241 42.5651 29.5341 42.5749 29.5466 42.5799C29.8107 42.7633 30.8041 43.2628 31.0557 43.4842C31.0993 43.692 31.1204 43.904 31.1185 44.1165V51.8497C31.1196 52.0621 31.0986 52.274 31.0557 52.482C30.779 52.7033 29.7981 53.1965 29.5466 53.3799C29.5341 53.3849 29.5241 53.3947 29.5188 53.4072C29.5134 53.4196 29.5133 53.4337 29.5183 53.4463C29.5233 53.4588 29.5331 53.4689 29.5454 53.4742C29.5578 53.4796 29.5718 53.4797 29.5843 53.4747H35.2119C35.2153 53.4678 35.217 53.4602 35.217 53.4526C35.217 53.4449 35.2153 53.4373 35.2119 53.4304C34.9667 53.266 34.1304 52.7981 33.7783 52.5895C33.723 52.347 33.6997 52.0983 33.7091 51.8497V48.5427H35.1616ZM33.7091 44.1165C33.7091 43.168 33.8978 43.0415 34.5328 43.0415C35.8596 43.0415 36.35 43.794 36.35 45.5076C36.35 47.2211 35.7213 47.9356 34.187 47.9356H33.7091V44.1165Z" fill="white"/>
<path d="M35.1616 48.5427C37.7962 48.5427 39.1859 47.316 39.1859 45.4759C39.1859 43.0668 37.1109 42.4851 34.7026 42.4851H29.5843C29.5718 42.4801 29.5578 42.4802 29.5454 42.4856C29.5331 42.4909 29.5233 42.501 29.5183 42.5136C29.5133 42.5261 29.5134 42.5402 29.5188 42.5526C29.5241 42.5651 29.5341 42.5749 29.5466 42.5799C29.8107 42.7633 30.8041 43.2628 31.0557 43.4842C31.0993 43.692 31.1204 43.904 31.1185 44.1165V51.8497C31.1196 52.0621 31.0986 52.274 31.0557 52.482C30.779 52.7033 29.7981 53.1965 29.5466 53.3799C29.5341 53.3849 29.5241 53.3947 29.5188 53.4072C29.5134 53.4196 29.5133 53.4337 29.5183 53.4463C29.5233 53.4588 29.5331 53.4689 29.5454 53.4742C29.5578 53.4796 29.5718 53.4797 29.5843 53.4747H35.2119C35.2153 53.4678 35.217 53.4602 35.217 53.4526C35.217 53.4449 35.2153 53.4373 35.2119 53.4304C34.9667 53.266 34.1304 52.7981 33.7783 52.5895C33.723 52.347 33.6997 52.0983 33.7091 51.8497V48.5427H35.1616ZM33.7091 44.1165C33.7091 43.168 33.8978 43.0415 34.5328 43.0415C35.8596 43.0415 36.35 43.794 36.35 45.5076C36.35 47.2211 35.7213 47.9356 34.187 47.9356H33.7091V44.1165Z" stroke="#5773A5" stroke-width="0.24" stroke-miterlimit="10"/>
<path d="M24.466 43.4017C24.8307 43.1615 25.6355 42.7694 25.8681 42.5797C25.9059 42.5797 25.8681 42.5039 25.8681 42.4912H13.9212C13.8835 42.4912 13.8646 42.5481 13.9212 42.5734C14.1539 42.7378 14.9461 43.1488 15.3108 43.3954C15.3779 43.6361 15.4097 43.8853 15.4051 44.1352V51.8495C15.4137 52.1217 15.3754 52.3934 15.292 52.6525C14.9021 52.8991 14.2042 53.2848 13.9904 53.4113H13.9464V53.4871H19.4671C19.4717 53.4807 19.4742 53.473 19.4742 53.465C19.4742 53.4571 19.4717 53.4493 19.4671 53.4429C19.2407 53.2848 18.4925 52.8991 18.1089 52.6525C18.0124 52.3952 17.9572 52.1242 17.9454 51.8495V43.2057H21.7873V51.8495C21.793 52.1123 21.7591 52.3745 21.6867 52.6272C21.2969 52.8738 20.5675 53.2595 20.3411 53.4113V53.4871H25.843C25.843 53.4871 25.843 53.4366 25.843 53.4113C25.6166 53.2532 24.8558 52.8548 24.4785 52.6082C24.4061 52.3621 24.3722 52.1061 24.3779 51.8495V44.1416C24.3723 43.892 24.4019 43.6429 24.466 43.4017" fill="white"/>
<path d="M24.466 43.4017C24.8307 43.1615 25.6355 42.7694 25.8681 42.5797C25.9059 42.5797 25.8681 42.5039 25.8681 42.4912H13.9212C13.8835 42.4912 13.8646 42.5481 13.9212 42.5734C14.1539 42.7378 14.9461 43.1488 15.3108 43.3954C15.3779 43.6361 15.4097 43.8853 15.4051 44.1352V51.8495C15.4137 52.1217 15.3754 52.3934 15.292 52.6525C14.9021 52.8991 14.2042 53.2848 13.9904 53.4113H13.9464V53.4871H19.4671C19.4717 53.4807 19.4742 53.473 19.4742 53.465C19.4742 53.4571 19.4717 53.4493 19.4671 53.4429C19.2407 53.2848 18.4925 52.8991 18.1089 52.6525C18.0124 52.3952 17.9572 52.1242 17.9454 51.8495V43.2057H21.7873V51.8495C21.793 52.1123 21.7591 52.3745 21.6867 52.6272C21.2969 52.8738 20.5675 53.2595 20.3411 53.4113V53.4871H25.843C25.843 53.4871 25.843 53.4366 25.843 53.4113C25.6166 53.2532 24.8558 52.8548 24.4785 52.6082C24.4061 52.3621 24.3722 52.1061 24.3779 51.8495V44.1416C24.3723 43.892 24.4019 43.6429 24.466 43.4017V43.4017Z" stroke="#5773A5" stroke-width="0.24" stroke-miterlimit="10"/>
<path d="M163.176 53.4302C162.95 53.2722 162.227 52.8991 161.837 52.6462C161.803 52.5448 161.776 52.4413 161.755 52.3363C161.731 52.1816 161.72 52.025 161.724 51.8684V44.1415C161.717 43.8832 161.749 43.6253 161.818 43.3765C162.195 43.1298 162.944 42.7441 163.176 42.5797C163.214 42.5797 163.176 42.4975 163.139 42.4912H157.712C157.662 42.4912 157.637 42.5481 157.712 42.5797C157.932 42.7378 158.674 43.1235 159.064 43.3701C159.128 43.5113 159.162 43.6641 159.165 43.8191L155.015 50.7745V44.1415C155.01 43.8875 155.042 43.6341 155.109 43.3891C155.486 43.1425 156.26 42.7568 156.492 42.5797C156.492 42.5797 156.492 42.5228 156.492 42.5039H150.909V42.5987H150.946C151.173 42.7568 151.877 43.1235 152.267 43.3701C152.344 43.6261 152.381 43.893 152.374 44.1605V51.8495C152.377 52.1118 152.346 52.3734 152.279 52.6272C151.89 52.8801 151.166 53.2595 150.946 53.4113C150.902 53.4113 150.946 53.4935 150.946 53.4998H156.379C156.429 53.4998 156.455 53.4366 156.417 53.4113C156.184 53.2469 155.423 52.8548 155.046 52.6082C154.977 52.4508 154.941 52.2808 154.939 52.1087L159.089 45.1533V51.8495C159.092 52.1076 159.061 52.365 158.995 52.6146C158.618 52.8612 157.863 53.2469 157.637 53.4113C157.593 53.4113 157.637 53.4935 157.637 53.4998H163.063C163.113 53.4998 163.139 53.4366 163.101 53.4113" fill="white"/>
<path d="M163.176 53.4302C162.95 53.2722 162.227 52.8991 161.837 52.6462C161.803 52.5448 161.776 52.4413 161.755 52.3363C161.731 52.1816 161.72 52.025 161.724 51.8684V44.1415C161.717 43.8832 161.749 43.6253 161.818 43.3765C162.195 43.1298 162.944 42.7441 163.176 42.5797C163.214 42.5797 163.176 42.4975 163.139 42.4912H157.712C157.662 42.4912 157.637 42.5481 157.712 42.5797C157.932 42.7378 158.674 43.1235 159.064 43.3701C159.128 43.5113 159.162 43.6641 159.165 43.8191L155.015 50.7745V44.1415C155.01 43.8875 155.042 43.6341 155.109 43.3891C155.486 43.1425 156.26 42.7568 156.492 42.5797C156.492 42.5797 156.492 42.5228 156.492 42.5039H150.909V42.5987H150.946C151.173 42.7568 151.877 43.1235 152.267 43.3701C152.344 43.6261 152.381 43.893 152.374 44.1605V51.8495C152.377 52.1118 152.346 52.3734 152.279 52.6272C151.89 52.8801 151.166 53.2595 150.946 53.4113C150.902 53.4113 150.946 53.4935 150.946 53.4998H156.379C156.429 53.4998 156.455 53.4366 156.417 53.4113C156.184 53.2469 155.423 52.8548 155.046 52.6082C154.977 52.4508 154.941 52.2808 154.939 52.1087L159.089 45.1533V51.8495C159.092 52.1076 159.061 52.365 158.995 52.6146C158.618 52.8612 157.863 53.2469 157.637 53.4113C157.593 53.4113 157.637 53.4935 157.637 53.4998H163.063C163.189 53.5124 163.214 53.4555 163.176 53.4302Z" stroke="#5773A5" stroke-width="0.24" stroke-miterlimit="10"/>
<path d="M176.852 50.7366C176.418 51.1982 175.268 52.3996 174.878 52.6905C174.488 52.9814 173.847 53.1015 171.451 53.1015C171.428 53.1015 171.405 53.0922 171.389 53.0756C171.372 53.059 171.363 53.0365 171.363 53.013V48.4413C171.363 48.4173 171.368 48.3934 171.377 48.3712C171.386 48.3489 171.399 48.3287 171.416 48.3117C171.433 48.2947 171.453 48.2811 171.476 48.2719C171.498 48.2627 171.521 48.258 171.545 48.258H172.916C173.321 48.252 173.712 48.4065 174.004 48.688C174.324 49.0357 174.608 49.4149 174.853 49.8198V49.8198L174.696 49.5795L174.853 49.8261C174.871 49.8304 174.891 49.8304 174.909 49.8261C174.93 49.8262 174.95 49.8184 174.965 49.8043C174.98 49.7902 174.99 49.7709 174.991 49.7502V46.5571C174.994 46.5107 174.994 46.4643 174.991 46.4179V46.4179C174.99 46.3999 174.984 46.3825 174.973 46.3682C174.962 46.3538 174.947 46.3432 174.93 46.3377C174.913 46.3322 174.895 46.3321 174.877 46.3374C174.86 46.3427 174.845 46.3531 174.834 46.3674V46.3674L173.878 47.4613C173.598 47.6527 173.259 47.7359 172.922 47.6952H171.545C171.498 47.6952 171.453 47.6768 171.419 47.6438C171.385 47.6107 171.365 47.5657 171.363 47.5182V43.092C171.363 43.0685 171.372 43.046 171.389 43.0294C171.405 43.0128 171.428 43.0035 171.451 43.0035C173.84 43.0035 174.092 42.9655 174.595 43.3259C175.288 43.945 175.949 44.5992 176.576 45.2861C176.59 45.2987 176.607 45.3068 176.625 45.3094C176.644 45.3121 176.663 45.3092 176.679 45.301C176.696 45.2929 176.71 45.28 176.72 45.2638C176.729 45.2476 176.734 45.229 176.733 45.2102L176.563 42.5419C176.56 42.5167 176.548 42.4933 176.53 42.4759C176.512 42.4586 176.488 42.4483 176.462 42.447H167.421C167.408 42.442 167.394 42.4422 167.382 42.4475C167.369 42.4528 167.359 42.4629 167.354 42.4755C167.349 42.488 167.35 42.5021 167.355 42.5146C167.36 42.527 167.37 42.5368 167.383 42.5419C167.553 42.6557 168.012 42.896 168.37 43.1109L168.766 43.3512C168.783 43.3587 168.798 43.3711 168.808 43.3869C168.818 43.4026 168.823 43.421 168.823 43.4397C168.823 44.1732 168.892 51.4069 168.823 52.5767C168.496 52.817 167.615 53.2659 167.364 53.4429C167.32 53.4429 167.364 53.5378 167.408 53.5378H176.689C176.726 53.5366 176.762 53.5218 176.79 53.4963C176.818 53.4708 176.835 53.4362 176.84 53.3987L177.003 50.7746C177.003 50.7564 176.998 50.7386 176.988 50.7234C176.978 50.7082 176.963 50.6962 176.947 50.6889C176.93 50.6816 176.912 50.6792 176.894 50.6821C176.876 50.6849 176.86 50.6929 176.846 50.705" fill="white"/>
<path d="M176.852 50.7366C176.418 51.1982 175.268 52.3996 174.878 52.6905C174.488 52.9814 173.847 53.1015 171.451 53.1015C171.428 53.1015 171.405 53.0922 171.389 53.0756C171.372 53.059 171.363 53.0365 171.363 53.013V48.4413C171.363 48.4173 171.368 48.3934 171.377 48.3712C171.386 48.3489 171.399 48.3287 171.416 48.3117C171.433 48.2947 171.453 48.2811 171.476 48.2719C171.498 48.2627 171.521 48.258 171.545 48.258H172.916C173.321 48.252 173.712 48.4065 174.004 48.688C174.324 49.0357 174.608 49.4149 174.853 49.8198V49.8198L174.696 49.5795L174.853 49.8261C174.871 49.8304 174.891 49.8304 174.909 49.8261C174.93 49.8262 174.95 49.8184 174.965 49.8043C174.98 49.7902 174.99 49.7709 174.991 49.7502V46.5571C174.994 46.5107 174.994 46.4643 174.991 46.4179V46.4179C174.99 46.3999 174.984 46.3825 174.973 46.3682C174.962 46.3538 174.947 46.3432 174.93 46.3377C174.913 46.3322 174.895 46.3321 174.877 46.3374C174.86 46.3427 174.845 46.3531 174.834 46.3674V46.3674L173.878 47.4613C173.598 47.6527 173.259 47.7359 172.922 47.6952H171.545C171.498 47.6952 171.453 47.6768 171.419 47.6438C171.385 47.6107 171.365 47.5657 171.363 47.5182V43.092C171.363 43.0685 171.372 43.046 171.389 43.0294C171.405 43.0128 171.428 43.0035 171.451 43.0035C173.84 43.0035 174.092 42.9655 174.595 43.3259C175.288 43.945 175.949 44.5992 176.576 45.2861C176.59 45.2987 176.607 45.3068 176.625 45.3094C176.644 45.3121 176.663 45.3092 176.679 45.301C176.696 45.2929 176.71 45.28 176.72 45.2638C176.729 45.2476 176.734 45.229 176.733 45.2102L176.563 42.5419C176.56 42.5167 176.548 42.4933 176.53 42.4759C176.512 42.4586 176.488 42.4483 176.462 42.447H167.421C167.408 42.442 167.394 42.4422 167.382 42.4475C167.369 42.4528 167.359 42.4629 167.354 42.4755C167.349 42.488 167.35 42.5021 167.355 42.5146C167.36 42.527 167.37 42.5368 167.383 42.5419C167.553 42.6557 168.012 42.896 168.37 43.1109L168.766 43.3512C168.783 43.3587 168.798 43.3711 168.808 43.3869C168.818 43.4026 168.823 43.421 168.823 43.4397C168.823 44.1732 168.892 51.4069 168.823 52.5767C168.496 52.817 167.615 53.2659 167.364 53.4429C167.32 53.4429 167.364 53.5378 167.408 53.5378H176.689C176.726 53.5366 176.762 53.5218 176.79 53.4963C176.818 53.4708 176.835 53.4362 176.84 53.3987L177.003 50.7746C176.998 50.7602 176.989 50.7472 176.978 50.737C176.966 50.7267 176.953 50.7194 176.938 50.7157C176.923 50.7119 176.907 50.7119 176.892 50.7155C176.878 50.7192 176.864 50.7264 176.852 50.7366Z" stroke="#5773A5" stroke-width="0.24" stroke-miterlimit="10"/>
<path d="M130.498 50.7368C130.058 51.1984 128.914 52.3998 128.518 52.6906C128.121 52.9815 127.486 53.1016 125.091 53.1016C125.079 53.1017 125.068 53.0993 125.058 53.0948C125.048 53.0903 125.038 53.0837 125.031 53.0754C125.023 53.067 125.017 53.0572 125.013 53.0465C125.01 53.0358 125.008 53.0244 125.009 53.0131V48.4415C125.008 48.4172 125.012 48.3929 125.021 48.3703C125.03 48.3476 125.043 48.327 125.06 48.3098C125.078 48.2926 125.098 48.2792 125.121 48.2703C125.143 48.2614 125.167 48.2572 125.191 48.2581H126.562C126.965 48.2518 127.354 48.4064 127.644 48.6881C127.965 49.0358 128.252 49.415 128.499 49.8199V49.8199L128.342 49.5796L128.499 49.8262C128.517 49.8306 128.537 49.8306 128.555 49.8262V49.8262C128.577 49.8265 128.597 49.8189 128.614 49.8049C128.63 49.791 128.64 49.7716 128.643 49.7504V46.5572C128.64 46.5109 128.64 46.4644 128.643 46.4181V46.4181C128.643 46.4 128.636 46.3827 128.625 46.3683C128.614 46.354 128.599 46.3433 128.582 46.3378C128.565 46.3323 128.547 46.3322 128.53 46.3375C128.512 46.3428 128.497 46.3533 128.486 46.3675V46.3675L127.53 47.4614C127.248 47.6517 126.906 47.7347 126.568 47.6953H125.198C125.15 47.6954 125.105 47.6769 125.071 47.6439C125.037 47.6109 125.017 47.5658 125.015 47.5183V43.0921C125.015 43.0686 125.025 43.0461 125.041 43.0295C125.058 43.0129 125.08 43.0036 125.103 43.0036C127.486 43.0036 127.744 42.9656 128.247 43.326C128.75 43.6865 129.788 44.8246 130.228 45.2862C130.241 45.3001 130.258 45.3095 130.277 45.3128C130.295 45.3162 130.315 45.3134 130.331 45.3048C130.348 45.2963 130.362 45.2825 130.371 45.2655C130.379 45.2485 130.382 45.2291 130.379 45.2103L130.159 42.5736C130.157 42.5479 130.146 42.5237 130.127 42.5061C130.108 42.4885 130.084 42.4787 130.058 42.4788H121.066C121.054 42.4737 121.04 42.4739 121.028 42.4792C121.015 42.4846 121.005 42.4946 121 42.5072C120.995 42.5198 120.996 42.5338 121.001 42.5463C121.006 42.5587 121.016 42.5686 121.029 42.5736C121.192 42.6874 121.658 42.9277 122.01 43.1427L122.412 43.383C122.428 43.3919 122.44 43.4048 122.449 43.4204C122.458 43.4359 122.463 43.4536 122.462 43.4715C122.462 44.205 122.538 51.4386 122.462 52.6084C122.129 52.8487 121.255 53.2976 121.004 53.4747C120.997 53.4772 120.992 53.4809 120.987 53.4856C120.982 53.4902 120.978 53.4958 120.976 53.502C120.973 53.5082 120.972 53.5148 120.972 53.5215C120.972 53.5282 120.973 53.5349 120.975 53.5411C120.978 53.5473 120.981 53.553 120.986 53.5578C120.991 53.5626 120.996 53.5664 121.002 53.5691C121.009 53.5717 121.015 53.5731 121.022 53.5732C121.029 53.5733 121.035 53.572 121.041 53.5695H130.31C130.329 53.5704 130.348 53.5675 130.365 53.5609C130.383 53.5544 130.4 53.5444 130.414 53.5315C130.428 53.5185 130.439 53.503 130.447 53.4856C130.455 53.4683 130.46 53.4495 130.461 53.4304L130.63 50.8063C130.63 50.7881 130.625 50.7703 130.615 50.7552C130.605 50.74 130.591 50.728 130.574 50.7206C130.557 50.7133 130.539 50.7109 130.521 50.7138C130.503 50.7166 130.487 50.7246 130.473 50.7368" fill="white"/>
<path d="M130.498 50.7368C130.058 51.1984 128.914 52.3998 128.518 52.6906C128.121 52.9815 127.486 53.1016 125.091 53.1016C125.079 53.1017 125.068 53.0993 125.058 53.0948C125.048 53.0903 125.038 53.0837 125.031 53.0754C125.023 53.067 125.017 53.0572 125.013 53.0465C125.01 53.0358 125.008 53.0244 125.009 53.0131V48.4415C125.008 48.4172 125.012 48.3929 125.021 48.3703C125.03 48.3476 125.043 48.327 125.06 48.3098C125.078 48.2926 125.098 48.2792 125.121 48.2703C125.143 48.2614 125.167 48.2572 125.191 48.2581H126.562C126.965 48.2518 127.354 48.4064 127.644 48.6881C127.965 49.0358 128.252 49.415 128.499 49.8199V49.8199L128.342 49.5796L128.499 49.8262C128.517 49.8306 128.537 49.8306 128.555 49.8262V49.8262C128.577 49.8265 128.597 49.8189 128.614 49.8049C128.63 49.791 128.64 49.7716 128.643 49.7504V46.5572C128.64 46.5109 128.64 46.4644 128.643 46.4181V46.4181C128.643 46.4 128.636 46.3827 128.625 46.3683C128.614 46.354 128.599 46.3433 128.582 46.3378C128.565 46.3323 128.547 46.3322 128.53 46.3375C128.512 46.3428 128.497 46.3533 128.486 46.3675V46.3675L127.53 47.4614C127.248 47.6517 126.906 47.7347 126.568 47.6953H125.198C125.15 47.6954 125.105 47.6769 125.071 47.6439C125.037 47.6109 125.017 47.5658 125.015 47.5183V43.0921C125.015 43.0686 125.025 43.0461 125.041 43.0295C125.058 43.0129 125.08 43.0036 125.103 43.0036C127.486 43.0036 127.744 42.9656 128.247 43.326C128.75 43.6865 129.788 44.8246 130.228 45.2862C130.241 45.3001 130.258 45.3095 130.277 45.3128C130.295 45.3162 130.315 45.3134 130.331 45.3048C130.348 45.2963 130.362 45.2825 130.371 45.2655C130.379 45.2485 130.382 45.2291 130.379 45.2103L130.159 42.5736C130.157 42.5479 130.146 42.5237 130.127 42.5061C130.108 42.4885 130.084 42.4787 130.058 42.4788H121.066C121.054 42.4737 121.04 42.4739 121.028 42.4792C121.015 42.4846 121.005 42.4946 121 42.5072C120.995 42.5198 120.996 42.5338 121.001 42.5463C121.006 42.5587 121.016 42.5686 121.029 42.5736C121.192 42.6874 121.658 42.9277 122.01 43.1427L122.412 43.383C122.428 43.3919 122.44 43.4048 122.449 43.4204C122.458 43.4359 122.463 43.4536 122.462 43.4715C122.462 44.205 122.538 51.4386 122.462 52.6084C122.129 52.8487 121.255 53.2976 121.004 53.4747C120.997 53.4772 120.992 53.4809 120.987 53.4856C120.982 53.4902 120.978 53.4958 120.976 53.502C120.973 53.5082 120.972 53.5148 120.972 53.5215C120.972 53.5282 120.973 53.5349 120.975 53.5411C120.978 53.5473 120.981 53.553 120.986 53.5578C120.991 53.5626 120.996 53.5664 121.002 53.5691C121.009 53.5717 121.015 53.5731 121.022 53.5732C121.029 53.5733 121.035 53.572 121.041 53.5695H130.31C130.329 53.5704 130.348 53.5675 130.365 53.5609C130.383 53.5544 130.4 53.5444 130.414 53.5315C130.428 53.5185 130.439 53.503 130.447 53.4856C130.455 53.4683 130.46 53.4495 130.461 53.4304L130.63 50.8063C130.628 50.7921 130.622 50.7786 130.614 50.7669C130.605 50.7553 130.594 50.7457 130.581 50.739C130.569 50.7323 130.554 50.7286 130.54 50.7282C130.526 50.7278 130.511 50.7308 130.498 50.7368V50.7368Z" stroke="#5773A5" stroke-width="0.24" stroke-miterlimit="10"/>
<path d="M95.0535 50.7366C94.6196 51.1982 93.4689 52.3996 93.0791 52.6905C92.5949 53.0509 92.0479 53.1015 89.6522 53.1015C89.6289 53.1015 89.6065 53.0922 89.59 53.0756C89.5735 53.059 89.5642 53.0365 89.5642 53.013V48.4413C89.5642 48.3927 89.5834 48.3461 89.6176 48.3117C89.6518 48.2773 89.6982 48.258 89.7465 48.258H91.1173C91.522 48.252 91.9127 48.4065 92.2051 48.688C92.5272 49.0354 92.8137 49.4146 93.0602 49.8198V49.8198L92.903 49.5795L93.0602 49.8261C93.0766 49.831 93.0941 49.831 93.1105 49.8261C93.1315 49.8251 93.1516 49.8171 93.1675 49.8034C93.1835 49.7896 93.1944 49.7709 93.1986 49.7502V46.4179C93.1977 46.3999 93.1914 46.3825 93.1805 46.3682C93.1696 46.3538 93.1546 46.3432 93.1375 46.3377C93.1203 46.3322 93.102 46.3321 93.0848 46.3374C93.0676 46.3427 93.0525 46.3531 93.0414 46.3674V46.3674L92.0856 47.4613C91.8034 47.6532 91.4618 47.7363 91.1236 47.6952H89.7528C89.7055 47.6952 89.6601 47.6768 89.6261 47.6438C89.592 47.6107 89.5721 47.5657 89.5705 47.5182V43.092C89.5705 43.0685 89.5798 43.046 89.5963 43.0294C89.6128 43.0128 89.6352 43.0035 89.6585 43.0035C92.0479 43.0035 92.2994 42.9655 92.8024 43.3259C93.4954 43.945 94.1565 44.5992 94.7831 45.2861C94.797 45.2987 94.8143 45.3068 94.8328 45.3094C94.8513 45.3121 94.8701 45.3092 94.887 45.301C94.9038 45.2929 94.9178 45.28 94.9273 45.2638C94.9368 45.2476 94.9414 45.229 94.9403 45.2102L94.7705 42.5419C94.7676 42.5167 94.7559 42.4933 94.7375 42.4759C94.7191 42.4586 94.6951 42.4483 94.6699 42.447H85.6217C85.6092 42.442 85.5952 42.4422 85.5828 42.4475C85.5704 42.4528 85.5607 42.4629 85.5557 42.4755C85.5507 42.488 85.5508 42.5021 85.5561 42.5146C85.5615 42.527 85.5715 42.5368 85.584 42.5419C85.7475 42.6557 86.2128 42.896 86.5712 43.1109L86.9673 43.3512C86.9835 43.3599 86.9972 43.3725 87.0071 43.388C87.017 43.4035 87.0228 43.4213 87.0239 43.4397C87.0239 44.1732 87.0931 51.4069 87.0239 52.5767C86.6969 52.817 85.8166 53.2659 85.5651 53.4429C85.5211 53.4429 85.5651 53.5378 85.6091 53.5378H94.8774C94.915 53.5366 94.9508 53.5218 94.9785 53.4963C95.0062 53.4708 95.0239 53.4362 95.0283 53.3987L95.1918 50.7746C95.1916 50.7564 95.1862 50.7386 95.1762 50.7234C95.1662 50.7082 95.1521 50.6962 95.1355 50.6889C95.1189 50.6816 95.1006 50.6792 95.0827 50.6821C95.0648 50.6849 95.0481 50.6929 95.0346 50.705" fill="white"/>
<path d="M95.0535 50.7366C94.6196 51.1982 93.4689 52.3996 93.0791 52.6905C92.5949 53.0509 92.0479 53.1015 89.6522 53.1015C89.6289 53.1015 89.6065 53.0922 89.59 53.0756C89.5735 53.059 89.5642 53.0365 89.5642 53.013V48.4413C89.5642 48.3927 89.5834 48.3461 89.6176 48.3117C89.6518 48.2773 89.6982 48.258 89.7465 48.258H91.1173C91.522 48.252 91.9127 48.4065 92.2051 48.688C92.5272 49.0354 92.8137 49.4146 93.0602 49.8198V49.8198L92.903 49.5795L93.0602 49.8261C93.0766 49.831 93.0941 49.831 93.1105 49.8261C93.1315 49.8251 93.1516 49.8171 93.1675 49.8034C93.1835 49.7896 93.1944 49.7709 93.1986 49.7502V46.4179C93.1977 46.3999 93.1914 46.3825 93.1805 46.3682C93.1696 46.3538 93.1546 46.3432 93.1375 46.3377C93.1203 46.3322 93.102 46.3321 93.0848 46.3374C93.0676 46.3427 93.0525 46.3531 93.0414 46.3674V46.3674L92.0856 47.4613C91.8034 47.6532 91.4618 47.7363 91.1236 47.6952H89.7528C89.7055 47.6952 89.6601 47.6768 89.6261 47.6438C89.592 47.6107 89.5721 47.5657 89.5705 47.5182V43.092C89.5705 43.0685 89.5798 43.046 89.5963 43.0294C89.6128 43.0128 89.6352 43.0035 89.6585 43.0035C92.0479 43.0035 92.2994 42.9655 92.8024 43.3259C93.4954 43.945 94.1565 44.5992 94.7831 45.2861C94.797 45.2987 94.8143 45.3068 94.8328 45.3094C94.8513 45.3121 94.8701 45.3092 94.887 45.301C94.9038 45.2929 94.9178 45.28 94.9273 45.2638C94.9368 45.2476 94.9414 45.229 94.9403 45.2102L94.7705 42.5419C94.7676 42.5167 94.7559 42.4933 94.7375 42.4759C94.7191 42.4586 94.6951 42.4483 94.6699 42.447H85.6217C85.6092 42.442 85.5952 42.4422 85.5828 42.4475C85.5704 42.4528 85.5607 42.4629 85.5557 42.4755C85.5507 42.488 85.5508 42.5021 85.5561 42.5146C85.5615 42.527 85.5715 42.5368 85.584 42.5419C85.7475 42.6557 86.2128 42.896 86.5712 43.1109L86.9673 43.3512C86.9835 43.3599 86.9972 43.3725 87.0071 43.388C87.017 43.4035 87.0228 43.4213 87.0239 43.4397C87.0239 44.1732 87.0931 51.4069 87.0239 52.5767C86.6969 52.817 85.8166 53.2659 85.5651 53.4429C85.5211 53.4429 85.5651 53.5378 85.6091 53.5378H94.8774C94.915 53.5366 94.9508 53.5218 94.9785 53.4963C95.0062 53.4708 95.0239 53.4362 95.0283 53.3987L95.1918 50.7746C95.186 50.7622 95.1776 50.7512 95.1671 50.7424C95.1567 50.7336 95.1445 50.7272 95.1313 50.7236C95.1182 50.72 95.1044 50.7193 95.091 50.7215C95.0775 50.7238 95.0648 50.7289 95.0535 50.7366V50.7366Z" stroke="#5773A5" stroke-width="0.24" stroke-miterlimit="10"/>
<path d="M117.174 52.9055C117.173 52.8797 117.161 52.8556 117.143 52.838C117.124 52.8203 117.099 52.8106 117.074 52.8106H116.445C115.621 52.8106 115.546 52.5956 115.546 52.3174V43.7938C115.539 43.6654 115.539 43.5366 115.546 43.4081C115.91 43.1678 116.721 42.7442 116.96 42.5798V42.5166H111.446C111.446 42.5166 111.408 42.5735 111.446 42.5924C111.691 42.7632 112.559 43.2247 112.892 43.4461C112.899 43.5661 112.899 43.6864 112.892 43.8065V52.8043H109.434V43.7938C109.427 43.6696 109.427 43.545 109.434 43.4208C109.786 43.1805 110.629 42.7505 110.867 42.5798C110.867 42.5798 110.867 42.5798 110.867 42.5482H105.347V42.6114C105.592 42.7821 106.422 43.2437 106.774 43.4524C106.784 43.5765 106.784 43.7013 106.774 43.8254V52.8043H103.316V43.7938C103.309 43.6759 103.309 43.5577 103.316 43.4397C103.649 43.1994 104.517 42.7568 104.762 42.5798C104.793 42.5798 104.762 42.5229 104.762 42.5039H99.3481V42.5671C99.5871 42.7315 100.398 43.1489 100.763 43.3955C100.77 43.5239 100.77 43.6527 100.763 43.7812V51.8495C100.768 52.1036 100.749 52.3577 100.706 52.6083C100.329 52.8549 99.5619 53.2406 99.3293 53.4113C99.2853 53.4113 99.3293 53.5062 99.3733 53.5062H114.011C114.406 53.5002 114.798 53.5667 115.168 53.7022C115.583 54.0436 116.589 55.6813 117.017 56.1366C117.03 56.1505 117.047 56.1598 117.066 56.1632C117.084 56.1665 117.104 56.1637 117.121 56.1552C117.138 56.1467 117.151 56.1329 117.16 56.1158C117.168 56.0988 117.171 56.0795 117.168 56.0607L117.174 52.9055Z" fill="white"/>
<path d="M117.174 52.9055C117.173 52.8797 117.161 52.8556 117.143 52.838C117.124 52.8203 117.099 52.8106 117.074 52.8106H116.445C115.621 52.8106 115.546 52.5956 115.546 52.3174V43.7938C115.539 43.6654 115.539 43.5366 115.546 43.4081C115.91 43.1678 116.721 42.7442 116.96 42.5798V42.5166H111.446C111.446 42.5166 111.408 42.5735 111.446 42.5924C111.691 42.7632 112.559 43.2247 112.892 43.4461C112.899 43.5661 112.899 43.6864 112.892 43.8065V52.8043H109.434V43.7938C109.427 43.6696 109.427 43.545 109.434 43.4208C109.786 43.1805 110.629 42.7505 110.867 42.5798C110.867 42.5798 110.867 42.5798 110.867 42.5482H105.347V42.6114C105.592 42.7821 106.422 43.2437 106.774 43.4524C106.784 43.5765 106.784 43.7013 106.774 43.8254V52.8043H103.316V43.7938C103.309 43.6759 103.309 43.5577 103.316 43.4397C103.649 43.1994 104.517 42.7568 104.762 42.5798C104.793 42.5798 104.762 42.5229 104.762 42.5039H99.3481V42.5671C99.5871 42.7315 100.398 43.1489 100.763 43.3955C100.77 43.5239 100.77 43.6527 100.763 43.7812V51.8495C100.768 52.1036 100.749 52.3577 100.706 52.6083C100.329 52.8549 99.5619 53.2406 99.3293 53.4113C99.2853 53.4113 99.3293 53.5062 99.3733 53.5062H114.011C114.406 53.5002 114.798 53.5667 115.168 53.7022C115.583 54.0436 116.589 55.6813 117.017 56.1366C117.03 56.1505 117.047 56.1598 117.066 56.1632C117.084 56.1665 117.104 56.1637 117.121 56.1552C117.138 56.1467 117.151 56.1329 117.16 56.1158C117.168 56.0988 117.171 56.0795 117.168 56.0607L117.174 52.9055Z" stroke="#5773A5" stroke-width="0.24" stroke-miterlimit="10"/>
<path d="M78.7366 47.5309C80.5098 47.1895 81.3901 46.3801 81.3901 45.0017C81.3901 43.3513 79.9565 42.4724 77.1395 42.4724H72.1092C72.0967 42.4674 72.0827 42.4675 72.0703 42.4729C72.058 42.4782 72.0482 42.4883 72.0432 42.5009C72.0382 42.5134 72.0384 42.5275 72.0437 42.5399C72.049 42.5524 72.059 42.5622 72.0715 42.5673C72.3419 42.7569 73.3291 43.2628 73.5994 43.4778C73.6409 43.6859 73.6599 43.8979 73.656 44.1101V51.8496C73.6601 52.0618 73.6411 52.2739 73.5994 52.4819C73.3416 52.6969 72.3419 53.2091 72.0715 53.3988C72.0275 53.3988 72.0715 53.4936 72.1092 53.4936H77.5922C80.3337 53.4936 81.9497 52.2922 81.9497 50.3005C81.9497 48.8145 80.8996 47.9103 78.7618 47.4993L78.7366 47.5309ZM76.2466 44.1101C76.2466 43.3766 76.2969 43.0225 77.0703 43.0225C78.2462 43.0225 78.7177 43.6548 78.7177 45.1218C78.7177 46.8354 78.089 47.3918 76.385 47.3918H76.2466V44.1101ZM77.1961 52.9119C76.4793 52.9119 76.2466 52.5705 76.2466 51.837V47.9293H76.6176C78.4285 47.9293 79.1327 48.5995 79.1327 50.4143C79.1327 52.1278 78.6737 52.9435 77.2464 52.9435" fill="white"/>
<path d="M78.7366 47.5309C80.5098 47.1895 81.3901 46.3801 81.3901 45.0017C81.3901 43.3513 79.9565 42.4724 77.1395 42.4724H72.1092C72.0967 42.4674 72.0827 42.4675 72.0703 42.4729C72.058 42.4782 72.0482 42.4883 72.0432 42.5009C72.0382 42.5134 72.0384 42.5275 72.0437 42.5399C72.049 42.5524 72.059 42.5622 72.0715 42.5673C72.3419 42.7569 73.3291 43.2628 73.5994 43.4778C73.6409 43.6859 73.6599 43.8979 73.656 44.1101V51.8496C73.6601 52.0618 73.6411 52.2739 73.5994 52.4819C73.3416 52.6969 72.3419 53.2091 72.0715 53.3988C72.0275 53.3988 72.0715 53.4936 72.1092 53.4936H77.5922C80.3337 53.4936 81.9497 52.2922 81.9497 50.3005C81.9246 48.8461 80.8745 47.9419 78.7366 47.5309ZM76.2215 44.1417C76.2215 43.4082 76.2718 43.0541 77.0452 43.0541C78.221 43.0541 78.6926 43.6864 78.6926 45.1534C78.6926 46.867 78.0638 47.4234 76.3598 47.4234H76.2215V44.1417ZM77.1709 52.9435C76.4541 52.9435 76.2215 52.6021 76.2215 51.8686V47.9293H76.5924C78.4034 47.9293 79.1076 48.5995 79.1076 50.4143C79.0887 52.1278 78.6297 52.9435 77.1709 52.9435Z" stroke="#5773A5" stroke-width="0.24" stroke-miterlimit="10"/>
</svg>
